<?xml version="1.0" encoding="UTF-8"?><svg width="39.688mm" height="45.481mm" version="1.1" viewBox="0 0 39.6875 45.481289" xmlns="http://www.w3.org/2000/svg"><g transform="translate(7.4391e-7 -.01809)"><g transform="matrix(.34581 0 0 .34581 -14.016 -9.2148)"><g transform="matrix(.53857 0 0 .53857 -97.52 -8.8008)" fill="#f0485f" fill-opacity=".94118"><path d="m394.34 309.76c-9.5824-2.8274-16.086-5.3671-37.754-14.744-19.086-8.2593-25.917-10.547-35.116-11.762-4.2716-0.56396-11.909-0.37499-15.442 0.38208-2.9216 0.62609-6.3759 1.8026-8.2634 2.8145-0.75289 0.40361-1.3951 0.70586-1.4272 0.67167-0.0321-0.0342 0.15314-1.0281 0.41156-2.2087 1.8518-8.4604 1.7806-19.113-0.18734-28.032-1.6605-7.525-4.3951-14.561-8.4688-21.791-2.0419-3.6239-5.1103-8.0205-10.989-15.746-10.725-14.094-14.636-20.41-17.588-28.403-4.4103-11.941-4.2636-19.624 0.53875-28.201 1.5043-2.6867 4.5266-6.6713 7.1295-9.3995 1.8582-1.9478 2.0377-2.0764 1.9377-1.389-0.0606 0.41669-0.39745 2.4054-0.74846 4.4194-0.84996 4.8769-1.0336 7.8767-0.68798 11.238 0.59652 5.8012 2.2979 10.538 5.581 15.538 2.6267 4.0002 4.1239 5.701 11.221 12.746 10.49 10.414 14.74 15.88 18.95 24.37 6.6095 13.329 8.8182 28.973 5.9475 42.126-0.63287 2.8997-1.983 7.4275-3.2721 10.973l-0.98806 2.7178 0.91858-0.55247c0.50521-0.30386 1.2027-0.74553 1.5499-0.98148 2.318-1.5751 6.6367-3.2596 10.421-4.0648 3.6078-0.76763 10.383-0.77307 14.58-0.0117 7.889 1.4313 15.5 4.473 21.466 8.5787 3.0131 2.0737 4.5327 3.3091 13.132 10.676 13.2 11.308 19.321 15.722 26.642 19.216 2.5866 1.2344 2.7363 1.4768 0.50547 0.81863v-1e-5z"/><path d="m433.18 298.73c10.89-11.918 17.264-27.761 19.528-48.537 0.21184-1.9445 0.44497-6.9448 0.51807-11.112 0.18506-10.548-0.20141-14.969-2.9254-33.461-1.1355-7.7089-1.5559-11.962-1.7164-17.367-0.20778-6.9945 0.4335-10.944 2.0984-12.922 0.679-0.80695 0.63576-0.88231-0.65748-1.1459-5.8748-1.1974-16.594-11.588-26.999-26.171-7.6906-10.779-13.56-16.213-22.625-20.95-7.0781-3.6979-14.72-5.504-21.971-5.1927-1.9445 0.0835-3.8649 0.22657-4.2675 0.31797-2.0222 0.45908 1.1103-1.3022 4.3938-2.4705 4.4353-1.5781 11.465-2.0418 16.784-1.1072 10.296 1.8091 20.072 6.8073 28.889 14.771 1.1606 1.0481 4.3839 4.3827 7.163 7.4103 12.193 13.283 22.051 20.468 30.599 22.303 1.8252 0.39171 6.2728 0.52715 7.2391 0.22045 0.40328-0.128 0.18725 0.2953-0.90338 1.77-2.8162 3.8081-4.6463 8.5852-5.6118 14.649-0.64528 4.0526-0.57361 14.556 0.15852 23.234 1.0813 12.816 1.3517 18.376 1.1853 24.37-0.68484 24.672-6.8547 44.176-19.053 60.23-2.9666 3.9044-13.03 13.763-14.049 13.763-0.0851 0 0.91539-1.171 2.2232-2.6022z"/><path d="m347.54 139.81c-0.0146-0.10567-0.15224-1.07-0.30588-2.1428-0.36336-2.5373-0.35898-7.7248 9e-3 -10.344 0.72194-5.1428 2.5108-9.8402 5.2359-13.749 2.0452-2.9337 5.7911-6.187 8.9326-7.7578 1.5855-0.79278 4.4726-1.7281 6.3699-2.0637 1.8615-0.32924 5.7862-0.37618 7.7594-0.0928 2.8938 0.41559 5.8788 1.303 8.8478 2.6304 1.8715 0.83673 3.7266 1.831 3.6183 1.9394-0.035 0.035-0.45869-0.0553-0.94162-0.20068-0.48292-0.14534-1.6528-0.41957-2.5997-0.6094-13.931-2.7928-27.047 3.4112-33.204 15.706-2.1892 4.3718-3.1998 8.5064-3.5577 14.556-0.0755 1.2768-0.14929 2.235-0.16387 2.1293z"/><path d="m324.57 143.84c-1.46-6.1476-2.1059-10.575-2.4283-16.645-0.52504-9.886 1.1469-20.526 4.5723-29.096 3.0235-7.5651 7.025-13.661 12.438-18.949 3.735-3.6488 7.1587-6.1118 11.663-8.3902 4.6463-2.3503 9.19-3.7339 14.982-4.5622 1.8985-0.27151 7.8697-0.38168 10.18-0.18782 10.01 0.84 20.174 4.4088 30.308 10.642 0.6804 0.4185 1.2096 0.78844 1.1759 0.82209-0.0337 0.03364-0.84603-0.1985-1.8053-0.51588-14.239-4.711-28.653-4.8995-41.393-0.54141-19.446 6.6522-33.559 23.013-38.191 44.276-1.5414 7.0751-1.95 15.516-1.1262 23.269 0.0796 0.74889 0.11431 1.392 0.0772 1.4291-0.0371 0.0371-0.24045-0.66085-0.45186-1.551z"/></g></g></g></svg>
                    