<?xml version="1.0" encoding="UTF-8" standalone="no"?>
<!-- Created with Inkscape (http://www.inkscape.org/) -->

<svg
   xmlns:dc="http://purl.org/dc/elements/1.1/"
   xmlns:cc="http://creativecommons.org/ns#"
   xmlns:rdf="http://www.w3.org/1999/02/22-rdf-syntax-ns#"
   xmlns:svg="http://www.w3.org/2000/svg"
   xmlns="http://www.w3.org/2000/svg"
   xmlns:sodipodi="http://sodipodi.sourceforge.net/DTD/sodipodi-0.dtd"
   xmlns:inkscape="http://www.inkscape.org/namespaces/inkscape"
   width="40mm"
   height="40mm"
   viewBox="0 0 40 40.000004"
   version="1.1"
   id="svg4545"
   inkscape:version="0.92.3 (2405546, 2018-03-11)"
   sodipodi:docname="Codebeats project.svg">
  <title
     id="title5259">Codebeats blog editor</title>
  <defs
     id="defs4539">
	

		
	</defs>
  <sodipodi:namedview
     id="base"
     pagecolor="#ffffff"
     bordercolor="#666666"
     borderopacity="1.0"
     inkscape:pageopacity="0.0"
     inkscape:pageshadow="2"
     inkscape:zoom="2.8"
     inkscape:cx="41.453872"
     inkscape:cy="34.567002"
     inkscape:document-units="mm"
     inkscape:current-layer="layer1"
     showgrid="false"
     inkscape:window-width="1920"
     inkscape:window-height="1027"
     inkscape:window-x="1912"
     inkscape:window-y="-8"
     inkscape:window-maximized="1"
     units="mm" />
  <metadata
     id="metadata4542">
    <rdf:RDF>
      <cc:Work
         rdf:about="">
        <dc:format>image/svg+xml</dc:format>
        <dc:type
           rdf:resource="http://purl.org/dc/dcmitype/StillImage" />
        <dc:title>Codebeats blog editor</dc:title>
        <dc:creator>
          <cc:Agent>
            <dc:title>Tomas Jaramillo Quintero</dc:title>
          </cc:Agent>
        </dc:creator>
        <dc:description>http://codebeats.ml
based on incon from https://www.flaticon.com/</dc:description>
      </cc:Work>
    </rdf:RDF>
  </metadata>
  <g
     inkscape:label="Layer 1"
     inkscape:groupmode="layer"
     id="layer1"
     transform="translate(0,-256.99998)">
    <g
       id="g5169"
       transform="matrix(0.10152309,0,0,0.10152309,37.402345,123.0335)">
</g>
    <g
       id="g5171"
       transform="matrix(0.10152309,0,0,0.10152309,37.402345,123.0335)">
</g>
    <g
       id="g5173"
       transform="matrix(0.10152309,0,0,0.10152309,37.402345,123.0335)">
</g>
    <g
       id="g5175"
       transform="matrix(0.10152309,0,0,0.10152309,37.402345,123.0335)">
</g>
    <g
       id="g5177"
       transform="matrix(0.10152309,0,0,0.10152309,37.402345,123.0335)">
</g>
    <g
       id="g5179"
       transform="matrix(0.10152309,0,0,0.10152309,37.402345,123.0335)">
</g>
    <g
       id="g5181"
       transform="matrix(0.10152309,0,0,0.10152309,37.402345,123.0335)">
</g>
    <g
       id="g5183"
       transform="matrix(0.10152309,0,0,0.10152309,37.402345,123.0335)">
</g>
    <g
       id="g5185"
       transform="matrix(0.10152309,0,0,0.10152309,37.402345,123.0335)">
</g>
    <g
       id="g5187"
       transform="matrix(0.10152309,0,0,0.10152309,37.402345,123.0335)">
</g>
    <g
       id="g5189"
       transform="matrix(0.10152309,0,0,0.10152309,37.402345,123.0335)">
</g>
    <g
       id="g5191"
       transform="matrix(0.10152309,0,0,0.10152309,37.402345,123.0335)">
</g>
    <g
       id="g5193"
       transform="matrix(0.10152309,0,0,0.10152309,37.402345,123.0335)">
</g>
    <g
       id="g5195"
       transform="matrix(0.10152309,0,0,0.10152309,37.402345,123.0335)">
</g>
    <g
       id="g5197"
       transform="matrix(0.10152309,0,0,0.10152309,37.402345,123.0335)">
</g>
    <g
       id="g5257"
       inkscape:export-xdpi="450.29193"
       inkscape:export-ydpi="450.29193"
       transform="matrix(1.3667884,0,0,1.3667732,-24.65643,122.84919)">
      <rect
         y="98.151466"
         x="18.040693"
         height="29.266012"
         width="29.266012"
         id="rect5161"
         style="fill:#f04859;fill-opacity:1;stroke:none;stroke-width:0.1;stroke-miterlimit:4;stroke-dasharray:none;stroke-opacity:1" />
      <path
         inkscape:connector-curvature="0"
         id="path5253"
         d="m 30.830233,117.26819 c -1.860712,-4.92844 -3.40198,-8.9609 -3.425036,-8.96104 -0.02305,-1.5e-4 -0.761091,1.60997 -1.640075,3.57804 l -1.59815,3.5783 h -3.066144 -3.06614 v -1.63867 -1.63865 l 2.02652,-8e-4 2.026519,-7.9e-4 2.778165,-6.21842 c 1.534754,-3.43526 2.798544,-6.181496 2.823692,-6.135946 0.02504,0.0453 1.500344,3.934986 3.27846,8.643626 1.778114,4.70865 3.252427,8.58388 3.27625,8.61162 0.02382,0.0277 0.463732,-1.06283 0.977575,-2.42352 l 0.934262,-2.47397 5.577117,-0.001 5.577116,-0.001 v 1.63818 1.6382 l -4.46853,0.0172 -4.468527,0.0172 -2.041489,5.36746 c -1.122819,2.9521 -2.05881,5.36681 -2.07998,5.36602 -0.02117,-7.9e-4 -1.56089,-4.03378 -3.421605,-8.96222 z"
         style="fill:#ffffff;fill-opacity:1;stroke:none;stroke-width:0.0252995;stroke-miterlimit:4;stroke-dasharray:none;stroke-opacity:1" />
    </g>
  </g>
</svg>
